<?xml version="1.0" encoding="UTF-8" standalone="no"?>
<!DOCTYPE svg PUBLIC "-//W3C//DTD SVG 1.1//EN"
 "http://www.w3.org/Graphics/SVG/1.1/DTD/svg11.dtd">
<!-- Generated by graphviz version 2.44.0 ()
 -->
<!-- Title: G Pages: 1 -->
<svg width="1459pt" height="399pt"
 viewBox="0.00 0.00 1459.00 399.00" xmlns="http://www.w3.org/2000/svg" xmlns:xlink="http://www.w3.org/1999/xlink">
<g id="graph0" class="graph" transform="scale(1 1) rotate(0) translate(4 395)">
<title>G</title>
<polygon fill="white" stroke="transparent" points="-4,4 -4,-395 1455,-395 1455,4 -4,4"/>
<!-- node1 -->
<g id="node1" class="node">
<title>node1</title>
<polygon fill="none" stroke="black" points="105.5,-213.5 105.5,-282.5 259.5,-282.5 259.5,-213.5 105.5,-213.5"/>
<text text-anchor="middle" x="182.5" y="-267.3" font-family="Times,serif" font-size="14.00">研擬計畫</text>
<polyline fill="none" stroke="black" points="105.5,-259.5 259.5,-259.5 "/>
<text text-anchor="middle" x="147.5" y="-244.3" font-family="Times,serif" font-size="14.00">開始:第1天</text>
<polyline fill="none" stroke="black" points="105.5,-236.5 189.5,-236.5 "/>
<text text-anchor="middle" x="147.5" y="-221.3" font-family="Times,serif" font-size="14.00">結束:第1天</text>
<polyline fill="none" stroke="black" points="189.5,-213.5 189.5,-259.5 "/>
<text text-anchor="middle" x="224.5" y="-244.3" font-family="Times,serif" font-size="14.00">編號:1</text>
<polyline fill="none" stroke="black" points="189.5,-236.5 259.5,-236.5 "/>
<text text-anchor="middle" x="224.5" y="-221.3" font-family="Times,serif" font-size="14.00">需時:1天</text>
</g>
<!-- node2 -->
<g id="node2" class="node">
<title>node2</title>
<polygon fill="none" stroke="black" points="426,-284.5 426,-353.5 580,-353.5 580,-284.5 426,-284.5"/>
<text text-anchor="middle" x="503" y="-338.3" font-family="Times,serif" font-size="14.00">任務分配</text>
<polyline fill="none" stroke="black" points="426,-330.5 580,-330.5 "/>
<text text-anchor="middle" x="468" y="-315.3" font-family="Times,serif" font-size="14.00">開始:第2天</text>
<polyline fill="none" stroke="black" points="426,-307.5 510,-307.5 "/>
<text text-anchor="middle" x="468" y="-292.3" font-family="Times,serif" font-size="14.00">結束:第5天</text>
<polyline fill="none" stroke="black" points="510,-284.5 510,-330.5 "/>
<text text-anchor="middle" x="545" y="-315.3" font-family="Times,serif" font-size="14.00">編號:2</text>
<polyline fill="none" stroke="black" points="510,-307.5 580,-307.5 "/>
<text text-anchor="middle" x="545" y="-292.3" font-family="Times,serif" font-size="14.00">需時:4天</text>
</g>
<!-- node1&#45;&gt;node2 -->
<g id="edge1" class="edge">
<title>node1&#45;&gt;node2</title>
<path fill="none" stroke="red" stroke-width="2" d="M259.79,-265.01C306.79,-275.48 367.17,-288.94 415.89,-299.8"/>
<polygon fill="red" stroke="red" stroke-width="2" points="415.26,-303.25 425.78,-302.01 416.78,-296.42 415.26,-303.25"/>
</g>
<!-- node3 -->
<g id="node3" class="node">
<title>node3</title>
<polygon fill="none" stroke="black" points="419,-142.5 419,-211.5 587,-211.5 587,-142.5 419,-142.5"/>
<text text-anchor="middle" x="503" y="-196.3" font-family="Times,serif" font-size="14.00">取得硬體</text>
<polyline fill="none" stroke="black" points="419,-188.5 587,-188.5 "/>
<text text-anchor="middle" x="464.5" y="-173.3" font-family="Times,serif" font-size="14.00">開始:第2天</text>
<polyline fill="none" stroke="black" points="419,-165.5 510,-165.5 "/>
<text text-anchor="middle" x="464.5" y="-150.3" font-family="Times,serif" font-size="14.00">結束:第18天</text>
<polyline fill="none" stroke="black" points="510,-142.5 510,-188.5 "/>
<text text-anchor="middle" x="548.5" y="-173.3" font-family="Times,serif" font-size="14.00">編號:3</text>
<polyline fill="none" stroke="black" points="510,-165.5 587,-165.5 "/>
<text text-anchor="middle" x="548.5" y="-150.3" font-family="Times,serif" font-size="14.00">需時:17天</text>
</g>
<!-- node1&#45;&gt;node3 -->
<g id="edge5" class="edge">
<title>node1&#45;&gt;node3</title>
<path fill="none" stroke="black" d="M259.79,-230.99C304.55,-221.02 361.43,-208.34 408.83,-197.77"/>
<polygon fill="black" stroke="black" points="409.79,-201.14 418.79,-195.55 408.27,-194.31 409.79,-201.14"/>
</g>
<!-- node4 -->
<g id="node4" class="node">
<title>node4</title>
<polygon fill="none" stroke="black" points="641,-284.5 641,-353.5 809,-353.5 809,-284.5 641,-284.5"/>
<text text-anchor="middle" x="725" y="-338.3" font-family="Times,serif" font-size="14.00">程式開發</text>
<polyline fill="none" stroke="black" points="641,-330.5 809,-330.5 "/>
<text text-anchor="middle" x="686.5" y="-315.3" font-family="Times,serif" font-size="14.00">開始:第6天</text>
<polyline fill="none" stroke="black" points="641,-307.5 732,-307.5 "/>
<text text-anchor="middle" x="686.5" y="-292.3" font-family="Times,serif" font-size="14.00">結束:第75天</text>
<polyline fill="none" stroke="black" points="732,-284.5 732,-330.5 "/>
<text text-anchor="middle" x="770.5" y="-315.3" font-family="Times,serif" font-size="14.00">編號:4</text>
<polyline fill="none" stroke="black" points="732,-307.5 809,-307.5 "/>
<text text-anchor="middle" x="770.5" y="-292.3" font-family="Times,serif" font-size="14.00">需時:70天</text>
</g>
<!-- node2&#45;&gt;node4 -->
<g id="edge2" class="edge">
<title>node2&#45;&gt;node4</title>
<path fill="none" stroke="red" stroke-width="2" d="M580.02,-319C596.27,-319 613.62,-319 630.44,-319"/>
<polygon fill="red" stroke="red" stroke-width="2" points="630.83,-322.5 640.83,-319 630.83,-315.5 630.83,-322.5"/>
</g>
<!-- node5 -->
<g id="node5" class="node">
<title>node5</title>
<polygon fill="none" stroke="black" points="648.5,-142.5 648.5,-211.5 801.5,-211.5 801.5,-142.5 648.5,-142.5"/>
<text text-anchor="middle" x="725" y="-196.3" font-family="Times,serif" font-size="14.00">安裝硬體</text>
<polyline fill="none" stroke="black" points="648.5,-188.5 801.5,-188.5 "/>
<text text-anchor="middle" x="694" y="-173.3" font-family="Times,serif" font-size="14.00">開始:第19天</text>
<polyline fill="none" stroke="black" points="648.5,-165.5 739.5,-165.5 "/>
<text text-anchor="middle" x="694" y="-150.3" font-family="Times,serif" font-size="14.00">結束:第28天</text>
<polyline fill="none" stroke="black" points="739.5,-142.5 739.5,-188.5 "/>
<text text-anchor="middle" x="770.5" y="-173.3" font-family="Times,serif" font-size="14.00">編號:5</text>
<polyline fill="none" stroke="black" points="739.5,-165.5 801.5,-165.5 "/>
<text text-anchor="middle" x="770.5" y="-150.3" font-family="Times,serif" font-size="14.00">需時:10</text>
</g>
<!-- node3&#45;&gt;node5 -->
<g id="edge6" class="edge">
<title>node3&#45;&gt;node5</title>
<path fill="none" stroke="black" d="M587.17,-177C603.8,-177 621.3,-177 638.02,-177"/>
<polygon fill="black" stroke="black" points="638.31,-180.5 648.31,-177 638.31,-173.5 638.31,-180.5"/>
</g>
<!-- node6 -->
<g id="node6" class="node">
<title>node6</title>
<polygon fill="none" stroke="black" points="863,-284.5 863,-353.5 1023,-353.5 1023,-284.5 863,-284.5"/>
<text text-anchor="middle" x="943" y="-338.3" font-family="Times,serif" font-size="14.00">程式測試</text>
<polyline fill="none" stroke="black" points="863,-330.5 1023,-330.5 "/>
<text text-anchor="middle" x="912" y="-315.3" font-family="Times,serif" font-size="14.00">開始:第76天</text>
<polyline fill="none" stroke="black" points="863,-307.5 961,-307.5 "/>
<text text-anchor="middle" x="912" y="-292.3" font-family="Times,serif" font-size="14.00">結束:第105天</text>
<polyline fill="none" stroke="black" points="961,-284.5 961,-330.5 "/>
<text text-anchor="middle" x="992" y="-315.3" font-family="Times,serif" font-size="14.00">編號:6</text>
<polyline fill="none" stroke="black" points="961,-307.5 1023,-307.5 "/>
<text text-anchor="middle" x="992" y="-292.3" font-family="Times,serif" font-size="14.00">需時:30</text>
</g>
<!-- node4&#45;&gt;node6 -->
<g id="edge3" class="edge">
<title>node4&#45;&gt;node6</title>
<path fill="none" stroke="red" stroke-width="2" d="M809.2,-319C823.36,-319 838.11,-319 852.42,-319"/>
<polygon fill="red" stroke="red" stroke-width="2" points="852.75,-322.5 862.75,-319 852.75,-315.5 852.75,-322.5"/>
</g>
<!-- node7 -->
<g id="node7" class="node">
<title>node7</title>
<polygon fill="none" stroke="black" points="866.5,-142.5 866.5,-211.5 1019.5,-211.5 1019.5,-142.5 866.5,-142.5"/>
<text text-anchor="middle" x="943" y="-196.3" font-family="Times,serif" font-size="14.00">鑽寫使用手冊</text>
<polyline fill="none" stroke="black" points="866.5,-188.5 1019.5,-188.5 "/>
<text text-anchor="middle" x="912" y="-173.3" font-family="Times,serif" font-size="14.00">開始:第29天</text>
<polyline fill="none" stroke="black" points="866.5,-165.5 957.5,-165.5 "/>
<text text-anchor="middle" x="912" y="-150.3" font-family="Times,serif" font-size="14.00">結束:第53天</text>
<polyline fill="none" stroke="black" points="957.5,-142.5 957.5,-188.5 "/>
<text text-anchor="middle" x="988.5" y="-173.3" font-family="Times,serif" font-size="14.00">編號:7</text>
<polyline fill="none" stroke="black" points="957.5,-165.5 1019.5,-165.5 "/>
<text text-anchor="middle" x="988.5" y="-150.3" font-family="Times,serif" font-size="14.00">需時:25</text>
</g>
<!-- node5&#45;&gt;node7 -->
<g id="edge7" class="edge">
<title>node5&#45;&gt;node7</title>
<path fill="none" stroke="black" d="M801.55,-177C819.22,-177 838.18,-177 856.26,-177"/>
<polygon fill="black" stroke="black" points="856.5,-180.5 866.5,-177 856.5,-173.5 856.5,-180.5"/>
</g>
<!-- node8 -->
<g id="node8" class="node">
<title>node8</title>
<polygon fill="none" stroke="black" points="866.5,-0.5 866.5,-69.5 1019.5,-69.5 1019.5,-0.5 866.5,-0.5"/>
<text text-anchor="middle" x="943" y="-54.3" font-family="Times,serif" font-size="14.00">轉換檔案</text>
<polyline fill="none" stroke="black" points="866.5,-46.5 1019.5,-46.5 "/>
<text text-anchor="middle" x="912" y="-31.3" font-family="Times,serif" font-size="14.00">開始:第29天</text>
<polyline fill="none" stroke="black" points="866.5,-23.5 957.5,-23.5 "/>
<text text-anchor="middle" x="912" y="-8.3" font-family="Times,serif" font-size="14.00">結束:第48天</text>
<polyline fill="none" stroke="black" points="957.5,-0.5 957.5,-46.5 "/>
<text text-anchor="middle" x="988.5" y="-31.3" font-family="Times,serif" font-size="14.00">編號:8</text>
<polyline fill="none" stroke="black" points="957.5,-23.5 1019.5,-23.5 "/>
<text text-anchor="middle" x="988.5" y="-8.3" font-family="Times,serif" font-size="14.00">需時:20</text>
</g>
<!-- node5&#45;&gt;node8 -->
<g id="edge8" class="edge">
<title>node5&#45;&gt;node8</title>
<path fill="none" stroke="black" d="M778.56,-142.44C809.4,-122.17 848.51,-96.46 880.74,-75.28"/>
<polygon fill="black" stroke="black" points="882.77,-78.13 889.2,-69.71 878.92,-72.28 882.77,-78.13"/>
</g>
<!-- node9 -->
<g id="node9" class="node">
<title>node9</title>
<polygon fill="none" stroke="black" points="1077,-284.5 1077,-353.5 1237,-353.5 1237,-284.5 1077,-284.5"/>
<text text-anchor="middle" x="1157" y="-338.3" font-family="Times,serif" font-size="14.00">系統測試</text>
<polyline fill="none" stroke="black" points="1077,-330.5 1237,-330.5 "/>
<text text-anchor="middle" x="1126" y="-315.3" font-family="Times,serif" font-size="14.00">開始:第106天</text>
<polyline fill="none" stroke="black" points="1077,-307.5 1175,-307.5 "/>
<text text-anchor="middle" x="1126" y="-292.3" font-family="Times,serif" font-size="14.00">結束:第130天</text>
<polyline fill="none" stroke="black" points="1175,-284.5 1175,-330.5 "/>
<text text-anchor="middle" x="1206" y="-315.3" font-family="Times,serif" font-size="14.00">編號:9</text>
<polyline fill="none" stroke="black" points="1175,-307.5 1237,-307.5 "/>
<text text-anchor="middle" x="1206" y="-292.3" font-family="Times,serif" font-size="14.00">需時:25</text>
</g>
<!-- node6&#45;&gt;node9 -->
<g id="edge4" class="edge">
<title>node6&#45;&gt;node9</title>
<path fill="none" stroke="red" stroke-width="2" d="M1023.24,-319C1037.34,-319 1052.12,-319 1066.48,-319"/>
<polygon fill="red" stroke="red" stroke-width="2" points="1066.85,-322.5 1076.85,-319 1066.85,-315.5 1066.85,-322.5"/>
</g>
<!-- node10 -->
<g id="node10" class="node">
<title>node10</title>
<polygon fill="none" stroke="black" points="1080.5,-142.5 1080.5,-211.5 1233.5,-211.5 1233.5,-142.5 1080.5,-142.5"/>
<text text-anchor="middle" x="1157" y="-196.3" font-family="Times,serif" font-size="14.00">使用者訓練</text>
<polyline fill="none" stroke="black" points="1080.5,-188.5 1233.5,-188.5 "/>
<text text-anchor="middle" x="1126" y="-173.3" font-family="Times,serif" font-size="14.00">開始:第54天</text>
<polyline fill="none" stroke="black" points="1080.5,-165.5 1171.5,-165.5 "/>
<text text-anchor="middle" x="1126" y="-150.3" font-family="Times,serif" font-size="14.00">結束:第73天</text>
<polyline fill="none" stroke="black" points="1171.5,-142.5 1171.5,-188.5 "/>
<text text-anchor="middle" x="1202.5" y="-173.3" font-family="Times,serif" font-size="14.00">編號:10</text>
<polyline fill="none" stroke="black" points="1171.5,-165.5 1233.5,-165.5 "/>
<text text-anchor="middle" x="1202.5" y="-150.3" font-family="Times,serif" font-size="14.00">需時:20</text>
</g>
<!-- node7&#45;&gt;node10 -->
<g id="edge9" class="edge">
<title>node7&#45;&gt;node10</title>
<path fill="none" stroke="black" d="M1019.64,-177C1035.99,-177 1053.38,-177 1070.09,-177"/>
<polygon fill="black" stroke="black" points="1070.39,-180.5 1080.39,-177 1070.39,-173.5 1070.39,-180.5"/>
</g>
<!-- node8&#45;&gt;node10 -->
<g id="edge10" class="edge">
<title>node8&#45;&gt;node10</title>
<path fill="none" stroke="black" d="M995.59,-69.56C1025.73,-89.74 1063.91,-115.32 1095.47,-136.45"/>
<polygon fill="black" stroke="black" points="1093.92,-139.63 1104.18,-142.29 1097.82,-133.82 1093.92,-139.63"/>
</g>
<!-- node11 -->
<g id="node11" class="node">
<title>node11</title>
<polygon fill="none" stroke="black" points="1291,-213.5 1291,-282.5 1451,-282.5 1451,-213.5 1291,-213.5"/>
<text text-anchor="middle" x="1371" y="-267.3" font-family="Times,serif" font-size="14.00">使用者測試</text>
<polyline fill="none" stroke="black" points="1291,-259.5 1451,-259.5 "/>
<text text-anchor="middle" x="1340" y="-244.3" font-family="Times,serif" font-size="14.00">開始:第131天</text>
<polyline fill="none" stroke="black" points="1291,-236.5 1389,-236.5 "/>
<text text-anchor="middle" x="1340" y="-221.3" font-family="Times,serif" font-size="14.00">結束:第155天</text>
<polyline fill="none" stroke="black" points="1389,-213.5 1389,-259.5 "/>
<text text-anchor="middle" x="1420" y="-244.3" font-family="Times,serif" font-size="14.00">編號:11</text>
<polyline fill="none" stroke="black" points="1389,-236.5 1451,-236.5 "/>
<text text-anchor="middle" x="1420" y="-221.3" font-family="Times,serif" font-size="14.00">需時:25</text>
</g>
<!-- node9&#45;&gt;node11 -->
<g id="edge11" class="edge">
<title>node9&#45;&gt;node11</title>
<path fill="none" stroke="red" stroke-width="2" d="M1237.24,-292.46C1251.62,-287.65 1266.69,-282.6 1281.32,-277.7"/>
<polygon fill="red" stroke="red" stroke-width="2" points="1282.48,-281 1290.85,-274.51 1280.26,-274.36 1282.48,-281"/>
</g>
<!-- node10&#45;&gt;node11 -->
<g id="edge12" class="edge">
<title>node10&#45;&gt;node11</title>
<path fill="none" stroke="black" d="M1233.64,-202.33C1249,-207.48 1265.29,-212.93 1281.07,-218.22"/>
<polygon fill="black" stroke="black" points="1280.21,-221.62 1290.81,-221.48 1282.44,-214.98 1280.21,-221.62"/>
</g>
<!-- tip -->
<g id="node12" class="node">
<title>tip</title>
<text text-anchor="middle" x="182.5" y="-366.8" font-family="Times,serif" font-size="24.00" fill="red">關鍵路徑 1→ 2 → 4 → 6 → 9 → 11</text>
</g>
</g>
</svg>
